<svg id="Capa_1"  enable-background="new 0 0 512.013 512.013" height="512" viewBox="0 0 512.013 512.013" width="512" xmlns="http://www.w3.org/2000/svg"><g><g><path d="m503.374 471.456-25.998-32.743c-2.468-3.108-2.4-7.525.161-10.556l24.914-29.479c2.835-3.354.451-8.49-3.941-8.49h-37.048l-7.171 3.532-45.25 80.75 2.262 5.354h88.029c4.319.001 6.727-4.986 4.042-8.368z" fill="#ff5595"/><g><path d="m354.933 74.166-72.725-33.173-14.355-3.928-27.749 12.859-47.207 39.233-27.75 52.949-6.379 59.192 11.164 54.042 35.405 54.544 48.058 31.153 26.049 7.124 6.206.24c33.626-6.323 63.529-23.197 86.136-47.057l5.262-35.158 13.609-99.419z" fill="#60b9fe"/><path d="m163.978 191.726c0-71.069 45.86-131.425 109.601-153.095l-23.154-6.336c-13.878.477-27.304 2.727-40.061 6.531l-9.811 11.736-55.5 53.587-25.517 52.311 24.88 98.88 36.362 64.432 12.67 18.643c19.208 8.199 40.351 12.742 62.556 12.742h.001c10.132 0 20.04-.95 29.647-2.756-69.943-17.8-121.674-81.194-121.674-156.675z" fill="#1ca8ff"/><path d="m175.458 201.801c-3.364-7.128-9.013-11.168-15.216-14.185l-1.475 13.682 11.164 54.042 18.553 28.581c2.571-8.346 8.069-18.678 16.068-35.066 17.543-35.94-18.397-24.388-29.094-47.054z" fill="#bced6b"/><path d="m189.972 279.66c-16.439-25.311-25.994-55.505-25.994-87.934 0-.699.017-1.393.026-2.09-14.082-8.424-33.363-8.581-34.327-28.492-1.284-26.527 29.95-14.547 31.234-42.786s21.393-26.955 39.363-41.93c12.618-10.515 11.735-28.075 10.09-37.602-65.839 19.631-113.846 80.627-113.846 152.846 0 65.876 39.942 122.418 96.928 146.742 4.276-7.079 4.443-16.42-.874-26.236-6.879-12.7-7.37-20.171-2.6-32.518z" fill="#a2e82d"/><path d="m285.884 34.995h-13.564l-11.971 5.548c.089.046.169.095.26.14 21.232 10.791 23.536 17.046 15.53 29.925s.696 20.884 12.531 19.492c11.834-1.392 45.44-23.463 57.622-12.673 12.183 10.79 13.865 32.175 4.12 36.004-9.746 3.829-52.829-6.876-64.316 22.015-11.487 28.89-11.564 49.665 19.414 58.9 30.978 9.236 42.813-1.555 45.598 20.374 2.784 21.929-13.227 29.238-11.138 49.078 1.514 14.384 16.944 33.276 31.816 37.545 27.084-28.583 43.7-67.185 43.7-109.671.001-77.866-55.806-142.687-129.602-156.677z" fill="#bced6b"/><path d="m260.61 40.683c1.109.563 2.154 1.112 3.16 1.652 7.129-2.956 14.513-5.419 22.114-7.341-9.681-1.835-19.667-2.807-29.882-2.807h-.001c-1.868 0-3.725.044-5.577.108 2.042 2.979 5.252 5.881 10.186 8.388z" fill="#a2e82d"/></g><path d="m100.126 390.188h-37.977l-2.607 5.865 29.087 35.987-29.087 42.18 3.846 5.604h73.285c3.115 0 5.977-1.05 8.28-2.798l.839-3.556z" fill="#ff5595"/><path d="m63.852 471.456 25.998-32.743c2.468-3.108 2.4-7.525-.162-10.556l-24.914-29.479c-2.834-3.354-.45-8.49 3.941-8.49h-55.221c-4.391 0-6.775 5.136-3.941 8.49l24.914 29.479c2.562 3.031 2.629 7.448.162 10.556l-25.998 32.743c-2.685 3.382-.277 8.368 4.041 8.368h55.221c-4.318.001-6.726-4.986-4.041-8.368z" fill="#ff3581"/><path d="m147.376 387.054h-47.667l-3.315 3.135 48.559 86.839c3.302-2.506 5.443-6.461 5.443-10.925v-75.913z" fill="#ff0263"/><path d="m461.463 390.188h-48.273l-47.023 84.032.884 2.806c2.303 1.748 5.166 2.798 8.281 2.798h35.973z" fill="#ff3581"/><path d="m412.917 387.22h-47.625l-3.684 2.968v75.913c0 4.464 2.142 8.419 5.443 10.925l48.559-86.839z" fill="#ff0263"/><path d="m414.898 300.551h-247.682l-4.423 4.669v79.5l5.497 5.468h246.609c4.682 0 8.478-3.796 8.478-8.478v-72.68c-.001-4.683-3.797-8.479-8.479-8.479z" fill="#ff5595"/><path d="m166.629 381.71v-72.68c0-4.682 3.796-8.478 8.478-8.478h-78c-4.682 0-8.478 3.796-8.478 8.478v72.68c0 4.682 3.796 8.478 8.478 8.478h78c-4.682 0-8.478-3.796-8.478-8.478z" fill="#ff3581"/></g><g><path d="m483.255 434.049c-.245-.309-.238-.75.016-1.051l24.913-29.479c3.218-3.807 3.913-8.98 1.815-13.501-2.099-4.521-6.499-7.331-11.484-7.331h-67.685c.02-.325.05-.648.05-.979v-18.84c0-4.142-3.357-7.5-7.5-7.5s-7.5 3.358-7.5 7.5v18.84c0 .54-.439.979-.979.979-12.669 0-305.119 0-317.79 0-.539 0-.978-.439-.978-.979v-72.68c0-.54.438-.978.978-.978h317.79c.539 0 .979.438.979.978v18.84c0 4.142 3.357 7.5 7.5 7.5s7.5-3.358 7.5-7.5v-18.84c0-8.811-7.168-15.978-15.979-15.978h-26.214c22.221-29.017 34.304-64.442 34.304-101.379 0-92.075-74.909-166.984-166.984-166.984-91.649 0-166.984 74.244-166.984 166.984 0 36.942 12.081 72.366 34.297 101.379h-26.209c-8.81 0-15.978 7.167-15.978 15.978v72.68c0 .33.03.653.05.979h-67.685c-4.984 0-9.385 2.809-11.483 7.33-2.099 4.521-1.402 9.695 1.814 13.501l24.914 29.479c.254.3.261.742.016 1.051l-25.998 32.745c-3.047 3.838-3.616 8.964-1.485 13.377 2.132 4.413 6.5 7.155 11.4 7.155h48.778c4.143 0 7.5-3.358 7.5-7.5s-3.357-7.5-7.5-7.5h-43.932l22.984-28.948c4.673-5.885 4.544-14.321-.307-20.061l-21.66-25.628h73.459l41.736 74.637h-37.28c-4.143 0-7.5 3.358-7.5 7.5s3.357 7.5 7.5 7.5h40.224c11.413 0 21.224-9.263 21.224-21.223 0 0 0 0 0-.001v-68.413h196.211v68.413c0 11.964 9.816 21.223 21.224 21.223h124.001c4.901 0 9.271-2.742 11.401-7.156 2.131-4.413 1.561-9.539-1.486-13.376zm-126.428-356c31.518 27.98 51.164 68.715 51.164 113.624 0 36.257-12.927 72.28-38.251 100.793-10.579-5.404-21.225-19.188-22.306-29.452-.785-7.46 1.67-12.549 4.778-18.992 3.778-7.83 8.061-16.705 6.341-30.247-2.562-20.169-14.072-21.196-26.259-22.283-6.422-.573-14.414-1.286-24.636-4.333-10.128-3.02-16.409-7.291-19.205-13.058-3.617-7.462-2.149-18.865 4.617-35.884 5.894-14.824 23.26-16.299 42.286-16.299.431 0 .865.001 1.298.002 7.285.024 12.562.041 16.505-1.508 5.6-2.199 9.372-7.299 10.622-14.359 1.63-9.206-1.153-19.812-6.954-28.004zm-12.688-10.131c-11.887-3.455-28.059 3.473-41.527 9.243-5.651 2.421-12.058 5.166-14.814 5.49-3.622.428-6.252-.509-6.979-1.653-.537-.845-.415-3.037 1.694-6.431 3.312-5.327 6.844-12.405 4.745-19.923-1.488-5.333-5.412-9.632-11.126-13.621 24.777 3.295 48.186 12.69 68.007 26.895zm-125.536-23.568c9.175-2.33 18.68-3.819 28.429-4.39 2.697 2.848 6.099 5.334 10.184 7.41 11.979 6.088 15.093 9.51 15.595 11.307.395 1.414-.627 4.096-3.036 7.972-4.979 8.01-5.569 16.172-1.618 22.393 4.02 6.328 12.227 9.585 21.394 8.508 4.914-.578 11.116-3.235 18.969-6.6 9.831-4.212 28.124-12.05 32.805-7.908 6.113 5.415 8.709 14.622 7.688 20.395-.358 2.021-1.056 2.903-1.314 3.005-1.474.509-6.977.492-10.995.479-17.671-.06-47.271-.152-57.571 25.755-5.754 14.473-11.429 33.003-4.176 47.968 4.734 9.768 14.029 16.602 28.418 20.891 11.67 3.479 20.87 4.299 27.589 4.899 4.624.412 8.617.769 10.189 1.788 1.419.92 2.154 4.556 2.521 7.444 1.16 9.135-1.681 15.021-4.969 21.838-3.478 7.207-7.42 15.376-6.188 27.081.99 9.4 6.599 19.947 14.287 28.468h-152.443c.267-6.765 4.083-14.861 12.371-31.629 1.416-2.866 2.938-5.947 4.564-9.277 5.412-11.088 6.789-19.441 4.335-26.288-3.022-8.43-10.851-12.003-17.758-15.156-6.501-2.968-12.642-5.771-15.629-12.101-6.155-13.042-18.189-17.801-27.86-21.625-11.312-4.473-16.769-7.029-17.212-16.193-.401-8.296 2.979-9.963 10.385-13.615 7.966-3.928 20.004-9.865 20.85-28.467.699-15.372 7.189-18.862 18.972-25.198 5.454-2.933 11.636-6.257 17.701-11.312 12.728-10.609 14.395-26.377 13.523-37.842zm-114.581 147.322c0-62.344 39.315-120.564 99.779-142.746.067 7.448-1.597 16.134-8.325 21.741-4.9 4.084-10.138 6.9-15.202 9.624-12.667 6.812-25.766 13.855-26.852 37.728-.443 9.75-4.981 11.988-12.499 15.695-8.276 4.081-19.61 9.67-18.733 27.793.931 19.236 15.207 24.881 26.679 29.417 8.687 3.435 16.188 6.4 19.811 14.078 5.33 11.295 15.108 15.758 22.966 19.345 4.818 2.199 8.979 4.098 9.866 6.573.546 1.523.793 5.452-3.695 14.646-1.613 3.306-3.125 6.365-4.531 9.21-8.498 17.193-13.719 27.758-13.952 38.275h-36.546c-25.024-27.917-38.766-63.789-38.766-101.379zm38.879 266.311-33.716-60.294h33.716zm226.211 0v-60.294h33.716zm9.166 14.342 41.736-74.637h73.459l-21.66 25.628c-4.851 5.739-4.979 14.176-.307 20.061l22.984 28.948z"/><path d="m201.301 337.87c-4.143 0-7.5 3.358-7.5 7.5s3.357 7.5 7.5 7.5h109.412c4.143 0 7.5-3.358 7.5-7.5s-3.357-7.5-7.5-7.5z"/></g></g></svg>