<svg height="512" viewBox="0 0 64 64" width="512" xmlns="http://www.w3.org/2000/svg"><g id="facemask-virus-covid19-corona-mask"><path d="m55.578 25.88-17.458-17.458a2 2 0 0 0 -2.539-.24l-8.433 5.735a49.976 49.976 0 0 0 -13.231 13.231l-5.735 8.433a2 2 0 0 0 .24 2.539l17.458 17.458a2 2 0 0 0 2.539.24l8.433-5.735a49.976 49.976 0 0 0 13.231-13.231l5.735-8.433a2 2 0 0 0 -.24-2.539z" fill="#a736c2"/><path d="m55.578 25.88-17.458-17.458a2 2 0 0 0 -2.539-.24l-.417.284.974.973c11.049 11.049 10.749 29.249-.964 39.593a13.624 13.624 0 0 1 -1.322 1.051l-8.016 5.451.044.044a2 2 0 0 0 2.539.24l8.433-5.735a49.976 49.976 0 0 0 13.231-13.231l5.735-8.433a2 2 0 0 0 -.24-2.539z" fill="#d62ea1"/><path d="m57.456 5.13a8 8 0 0 0 -11.314 0l-5.657 5.657 2.122 2.121 5.656-5.657a5.008 5.008 0 0 1 7.072 0l1.414 1.414a5.008 5.008 0 0 1 0 7.072l-5.657 5.656 2.121 2.122 5.657-5.657a8 8 0 0 0 0-11.314z" fill="#d1e7f8"/><path d="m8.665 56.749-1.414-1.414a5.008 5.008 0 0 1 0-7.072l5.657-5.656-2.121-2.122-5.657 5.657a8 8 0 0 0 0 11.314l1.414 1.414a8 8 0 0 0 11.314 0l5.657-5.657-2.122-2.121-5.656 5.657a5.008 5.008 0 0 1 -7.072 0z" fill="#d1e7f8"/><g fill="#231f20"><path d="m59.58 5.84-1.42-1.42a9 9 0 0 0 -12.72 0l-4.95 4.95-1.66-1.66a3.026 3.026 0 0 0 -3.81-.36l-8.44 5.74a50.913 50.913 0 0 0 -13.49 13.49l-5.74 8.44a3.026 3.026 0 0 0 .36 3.81l1.66 1.66-4.95 4.95a9 9 0 0 0 0 12.72l1.42 1.42a9.005 9.005 0 0 0 12.72 0l4.95-4.95 1.66 1.66a3 3 0 0 0 2.13.87 3.037 3.037 0 0 0 1.68-.51l8.44-5.74a50.913 50.913 0 0 0 13.49-13.49l5.74-8.44a3.037 3.037 0 0 0 .51-1.68 3 3 0 0 0 -.87-2.13l-1.66-1.66 4.95-4.95a9 9 0 0 0 0-12.72zm-42.43 52.32a7.007 7.007 0 0 1 -9.9 0l-1.41-1.41a7.007 7.007 0 0 1 0-9.9l4.95-4.95.7.71-4.95 4.95a6 6 0 0 0 0 8.48l1.42 1.42a6.011 6.011 0 0 0 8.48 0l4.95-4.95.71.7zm-4.24-14.14 7.07 7.07-4.95 4.95a4.008 4.008 0 0 1 -5.66 0l-1.41-1.41a4.008 4.008 0 0 1 0-5.66zm41.96-17.43a1 1 0 0 1 .12 1.27l-5.73 8.43a49.083 49.083 0 0 1 -12.97 12.97l-8.43 5.73a1 1 0 0 1 -1.27-.12l-4.49-4.48v-.01l-4.24-4.24-8.73-8.73a1 1 0 0 1 -.12-1.27l5.73-8.43a49.083 49.083 0 0 1 12.97-12.97l8.43-5.73a.978.978 0 0 1 .57-.17 1 1 0 0 1 .7.29l4.49 4.48v.01zm-10.85-13.68 4.95-4.95a4.008 4.008 0 0 1 5.66 0l1.41 1.41a4.008 4.008 0 0 1 0 5.66l-4.95 4.95zm9.19 9.19-.7-.71 4.95-4.95a6 6 0 0 0 0-8.48l-1.42-1.42a6.011 6.011 0 0 0 -8.48 0l-4.95 4.95-.71-.7 4.95-4.95a7.007 7.007 0 0 1 9.9 0l1.41 1.41a7.007 7.007 0 0 1 0 9.9z"/><path d="m45.435 22.808a1 1 0 0 0 -1.414 0l-21.213 21.213a1 1 0 1 0 1.414 1.414l21.213-21.213a1 1 0 0 0 0-1.414z"/><path d="m41.192 18.565a1 1 0 0 0 -1.414 0l-21.213 21.213a1 1 0 1 0 1.414 1.414l21.213-21.213a1 1 0 0 0 0-1.414z"/><path d="m36.949 14.322a1 1 0 0 0 -1.414 0l-21.213 21.214a1 1 0 1 0 1.414 1.414l21.213-21.214a1 1 0 0 0 0-1.414z"/><path d="m27.051 48.264a1 1 0 1 0 1.414 1.414l21.213-21.214a1 1 0 1 0 -1.414-1.414z"/></g></g></svg>